<svg width="201" height="40" viewBox="0 0 201 40" fill="none" xmlns="http://www.w3.org/2000/svg">
<g clip-path="url(#clip0_105_2)">
<rect width="40" height="40" rx="12" fill="#452829"/>
<path d="M12 11.9766V28.0234H15.8594V20.7891H24.1406V28.0234H27.9297V11.9766H24.1406V19.2109H15.8594V11.9766H12Z" fill="#FFFCFA"/>
<path d="M57.9281 12.3125C59.0391 12.3125 60.0339 12.5117 60.9128 12.9102C61.7917 13.3086 62.5312 13.8568 63.1315 14.5547C63.7318 15.2526 64.1797 16.0794 64.4752 17.0352C64.7708 17.9909 64.9186 19.0326 64.9186 20.1602C64.9186 21.2878 64.7708 22.3327 64.4752 23.2956C64.1797 24.2585 63.7318 25.0853 63.1315 25.7761C62.5312 26.4669 61.7917 27.0149 60.9128 27.4199C60.0339 27.8249 59.0391 28.0273 57.9281 28.0273H50.5631V12.3125H57.9281ZM57.9164 25.5664C58.6484 25.5664 59.3086 25.4336 59.8968 25.168C60.485 24.9023 60.9844 24.5365 61.4046 24.0703C61.8249 23.6042 62.1582 23.0534 62.4046 22.418C62.651 21.7826 62.7747 21.0117 62.7747 20.1055C62.7747 19.2344 62.651 18.4739 62.4046 17.8242C62.1582 17.1745 61.8249 16.6237 61.4046 16.1719C60.9844 15.7201 60.485 15.3571 59.8968 15.082C59.3086 14.807 58.6484 14.6699 57.9164 14.6699H52.7018V25.5664H57.9164Z" fill="#452829"/>
<path d="M76.9298 12.3125H84.3401L86.5391 22.4297L88.7383 12.3125H96.0901L89.6721 28H81.6525L76.9298 12.3125Z" fill="#452829"/>
<path d="M107.035 12.3125H113.891V14.7305H109.176V19.0352H113.344V21.4531H109.176V25.6055H113.996V28H107.035V12.3125Z" fill="#452829"/>
<path d="M125.753 12.3125H133.163L135.362 22.4297L137.561 12.3125H144.913L138.495 28H130.475L125.753 12.3125Z" fill="#452829"/>
<path d="M150.141 12.3125H152.285V28H150.141V12.3125Z" fill="#452829"/>
<path d="M165.716 12.3125C166.827 12.3125 167.821 12.5117 168.699 12.9102C169.578 13.3086 170.318 13.8568 170.918 14.5547C171.518 15.2526 171.966 16.0794 172.261 17.0352C172.557 17.9909 172.704 19.0326 172.704 20.1602C172.704 21.2878 172.557 22.3327 172.261 23.2956C171.966 24.2585 171.518 25.0853 170.918 25.7761C170.318 26.4669 169.578 27.0149 168.699 27.4199C167.821 27.8249 166.827 28.0273 165.716 28.0273C164.605 28.0273 163.61 27.8249 162.732 27.4199C161.853 27.0149 161.113 26.4669 160.513 25.7761C159.913 25.0853 159.465 24.2585 159.169 23.2956C158.874 22.3327 158.726 21.2878 158.726 20.1602C158.726 19.0326 158.874 17.9909 159.169 17.0352C159.465 16.0794 159.913 15.2526 160.513 14.5547C161.113 13.8568 161.853 13.3086 162.732 12.9102C163.61 12.5117 164.605 12.3125 165.716 12.3125ZM165.716 25.5664C166.448 25.5664 167.108 25.4336 167.696 25.168C168.284 24.9023 168.783 24.5365 169.203 24.0703C169.623 23.6042 169.957 23.0534 170.203 22.418C170.449 21.7826 170.572 21.0117 170.572 20.1055C170.572 19.2344 170.449 18.4739 170.203 17.8242C169.957 17.1745 169.623 16.6237 169.203 16.1719C168.783 15.7201 168.284 15.3571 167.696 15.082C167.108 14.807 166.448 14.6699 165.716 14.6699C164.984 14.6699 164.324 14.807 163.736 15.082C163.148 15.3571 162.648 15.7201 162.228 16.1719C161.808 16.6237 161.475 17.1745 161.228 17.8242C160.982 18.4739 160.859 19.2344 160.859 20.1055C160.859 21.0117 160.982 21.7826 161.228 22.418C161.475 23.0534 161.808 23.6042 162.228 24.0703C162.648 24.5365 163.148 24.9023 163.736 25.168C164.324 25.4336 164.984 25.5664 165.716 25.5664Z" fill="#452829"/>
<path d="M185.011 12.3125C186.122 12.3125 187.117 12.5117 187.995 12.9102C188.874 13.3086 189.614 13.8568 190.214 14.5547C190.814 15.2526 191.262 16.0794 191.558 17.0352C191.853 17.9909 192.001 19.0326 192.001 20.1602C192.001 21.2878 191.853 22.3327 191.558 23.2956C191.262 24.2585 190.814 25.0853 190.214 25.7761C189.614 26.4669 188.874 27.0149 187.995 27.4199C187.117 27.8249 186.122 28.0273 185.011 28.0273H177.646V12.3125H185.011ZM185.000 25.5664C185.732 25.5664 186.392 25.4336 186.980 25.168C187.568 24.9023 188.067 24.5365 188.487 24.0703C188.907 23.6042 189.241 23.0534 189.487 22.418C189.734 21.7826 189.857 21.0117 189.857 20.1055C189.857 19.2344 189.734 18.4739 189.487 17.8242C189.241 17.1745 188.907 16.6237 188.487 16.1719C188.067 15.7201 187.568 15.3571 186.980 15.082C186.392 14.807 185.732 14.6699 185.000 14.6699H179.785V25.5664H185.000Z" fill="#452829"/>
<path d="M194.061 12.3125H200.917V14.7305H196.202V19.0352H200.369V21.4531H196.202V28H194.061V12.3125Z" fill="#452829"/>
</g>
<defs>
<clipPath id="clip0_105_2">
<rect width="201" height="40" fill="white"/>
</clipPath>
</defs>
</svg>